<svg xmlns="http://www.w3.org/2000/svg" viewBox="0 0 184 48" role="img" aria-labelledby="title desc">
  <title id="title">AEGIS</title>
  <desc id="desc">Aegis wordmark with a precise policy-gate cut.</desc>
  <g fill="#ecf8fb">
    <path d="M4 40 18 8h8l14 32h-8l-3-7H15l-3 7H4Zm13.7-13h8.6L22 16.6 17.7 27Z"/>
    <path d="M48 8h27v7H56v5.5h17v6.4H56V33h19.5v7H48V8Z"/>
    <path d="M101 7.3c7.2 0 12.4 2.1 16.1 5.9l-5 5.1a14 14 0 0 0-10.6-4.1c-7.8 0-12.8 4-12.8 10s4.7 10.1 12.9 10.1c3.2 0 6.1-.6 8.4-1.8v-4.7H99v-6.2h18.5v14.9c-4.2 2.9-9.6 4.4-16.2 4.4-12.8 0-20.7-6.5-20.7-16.7 0-10.1 8.1-16.9 20.4-16.9Z"/>
    <path d="M127 8h8v32h-8V8Z"/>
    <path d="M160 7.3c7.1 0 12.5 1.6 17.1 4.7l-3.9 5.7a23.8 23.8 0 0 0-13.3-3.9c-4.8 0-7.3 1.2-7.3 3.3 0 2.4 2.9 2.8 9.4 3.5 10.4 1.1 16.6 3.3 16.6 10 0 6.8-6.2 10.3-17.5 10.3-8.1 0-14.6-2.2-19-5.7l4.3-5.5c3.9 3 9 4.6 14.9 4.6 6.4 0 9.7-1.1 9.7-3.4 0-2.1-2.7-2.7-9.5-3.4-9.9-1-16.5-3.1-16.5-10 0-6.4 6-10.2 16-10.2Z"/>
  </g>
  <path stroke="#58c8ef" stroke-width="2" stroke-linecap="round" d="M182 24h-8"/>
</svg>
